<svg xmlns="http://www.w3.org/2000/svg" version="1.1" xmlns:xlink="http://www.w3.org/1999/xlink" xmlns:svgjs="http://svgjs.com/svgjs" width="1920" height="1080" preserveAspectRatio="none" viewBox="0 0 1920 1080"><g mask="url(&quot;#SvgjsMask1020&quot;)" fill="none"><rect width="1920" height="1080" x="0" y="0" fill="url(#SvgjsLinearGradient1021)"></rect><path d="M1920 0L1779.8899999999999 0L1920 435.68z" fill="rgba(255, 255, 255, .1)"></path><path d="M1779.8899999999999 0L1920 435.68L1920 495.02L962.1599999999999 0z" fill="rgba(255, 255, 255, .075)"></path><path d="M962.16 0L1920 495.02L1920 843.26L598.92 0z" fill="rgba(255, 255, 255, .05)"></path><path d="M598.9200000000001 0L1920 843.26L1920 978.61L430.12000000000006 0z" fill="rgba(255, 255, 255, .025)"></path><path d="M0 1080L557.73 1080L0 766.23z" fill="rgba(0, 0, 0, .1)"></path><path d="M0 766.23L557.73 1080L1063.41 1080L0 340.98z" fill="rgba(0, 0, 0, .075)"></path><path d="M0 340.98L1063.41 1080L1240.98 1080L0 165.08z" fill="rgba(0, 0, 0, .05)"></path><path d="M0 165.08000000000004L1240.98 1080L1327.48 1080L0 91.67000000000004z" fill="rgba(0, 0, 0, .025)"></path></g><defs><mask id="SvgjsMask1020"><rect width="1920" height="1080" fill="#ffffff"></rect></mask><linearGradient x1="10.94%" y1="-19.44%" x2="89.06%" y2="119.44%" gradientUnits="userSpaceOnUse" id="SvgjsLinearGradient1021"><stop stop-color="#0e2a47" offset="0"></stop><stop stop-color="rgba(0, 69, 158, 1)" offset="1"></stop></linearGradient></defs></svg>