<?xml version="1.0" encoding="utf-8"?><svg version="1.1" id="duo" xmlns="http://www.w3.org/2000/svg" xmlns:xlink="http://www.w3.org/1999/xlink" x="0px" y="0px" viewBox="0 0 150 135" style="enable-background:new 0 0 150 135" xml:space="preserve"><style type="text/css">.st0{fill-rule:evenodd;clip-rule:evenodd;fill:#F49000;} .st1{fill:#58CC02;} .st2{fill-rule:evenodd;clip-rule:evenodd;fill:#58CC02;} .st3{fill:#89E219;} .st4{fill-rule:evenodd;clip-rule:evenodd;fill:#89E219;} .st5{fill:#FFC200;} .st6{fill:#FFDE00;} .st7{fill-rule:evenodd;clip-rule:evenodd;fill:#FFFFFF;} .st8{fill-rule:evenodd;clip-rule:evenodd;fill:#4B4B4B;}</style><g id="feet"><path id="left_foot" class="st0" d="M47.5,127.8L47.5,127.8c0-3.8,3.1-6.9,6.9-6.9h10.8c3.8,0,6.9,3.1,6.9,6.9l0,0 c0,3.8-3.1,6.9-6.9,6.9H54.4C50.6,134.7,47.5,131.6,47.5,127.8z"/><path id="right_foot" class="st0" d="M77.3,127.8L77.3,127.8c0-3.8,3.1-6.9,6.9-6.9H95c3.8,0,6.9,3.1,6.9,6.9l0,0 c0,3.8-3.1,6.9-6.9,6.9H84.2C80.4,134.7,77.3,131.6,77.3,127.8z"/></g><g id="wings"><path id="left_wing" class="st1" d="M1,101.7l38.9-70.4C42,27.6,47.1,27,50,30.1c14.1,15.1,16.9,38,6.7,56.6S25.6,115,5.3,111 C1.1,110.2-1.1,105.5,1,101.7z"/><path id="right_wing" class="st1" d="M148.4,101.7l-38.9-70.4c-2.1-3.8-7.2-4.4-10.2-1.3c-14.1,15.1-16.9,38-6.7,56.6 s31.1,28.3,51.4,24.3C148.3,110.2,150.5,105.5,148.4,101.7z"/></g><path id="torso" class="st2" d="M46,2c14,5.9,23.6,8.9,28.8,8.9c5.2,0,14.6-2.9,28.4-8.8l0,0c9.1-3.9,19.7,0.4,23.6,9.5	c0.9,2.2,1.4,4.6,1.4,7v55.9c0,29.6-24,53.6-53.6,53.6l0,0C45,128,21,104.1,21,74.5v-56c0-9.9,8-17.9,18-17.9	C41.4,0.6,43.7,1.1,46,2z"/><path id="belly" class="st3" d="M70.6,91.5c0.2-0.7-0.3-1.3-1-1.3H56.1c-0.7,0-1.2,0.7-1,1.3c1.1,3.1,4.2,5.3,7.7,5.3	C66.3,96.8,69.5,94.6,70.6,91.5z M93.1,90.2H79.6c-0.7,0-1.2,0.7-1,1.3c1.1,3.1,4.2,5.3,7.7,5.3s6.7-2.2,7.8-5.3	C94.3,90.9,93.8,90.2,93.1,90.2z M81.3,101.5H67.8c-0.7,0-1.2,0.7-1,1.3c1.1,3.1,4.2,5.3,7.7,5.3s6.7-2.2,7.8-5.3	C82.6,102.2,82.1,101.5,81.3,101.5z"/><g id="face"><g id="mask"><path id="Combined-Shape-Copy-57" class="st3" d="M49.1,10.4L65.3,28c0.9,0.9,0.5,2.4-0.6,3c-5.6,2.5-12.2,1.1-16.4-3.6 S43.4,16,46.4,10.7C47.1,9.6,48.2,9.5,49.1,10.4z"/><path id="Path-12" class="st4" d="M63.1,25.8c5.9,6,16.3,6,22.8,0s-1,34.8-1,34.6c0,0-3.5-0.1-10.5,0c-1.9,0-5.3,0-10.1,0 C59.6,33.4,59.2,21.8,63.1,25.8z"/><path id="Combined-Shape-Copy-58" class="st3" d="M40.2,14.6L56,32.3c0.9,0.9,0.5,2.4-0.6,3c-5.6,2.5-12.2,1.1-16.4-3.6 S34.1,20.3,37.2,15C37.8,13.8,39.3,13.7,40.2,14.6z"/><path id="Rectangle-130-Copy-36" class="st4" d="M47.6,19.5h0.6c11.7,0,21.1,9.5,21.1,21.1v11.2c0,11.7-9.5,21.1-21.1,21.1h-0.6 c-11.7,0-21.1-9.5-21.1-21.1V40.7C26.5,29,35.9,19.5,47.6,19.5z"/><path id="Combined-Shape-Copy-59" class="st3" d="M99.9,10.4L84,28c-0.9,0.9-0.5,2.4,0.6,3c5.6,2.5,12.2,1.1,16.4-3.6 c4.2-4.7,4.9-11.4,1.8-16.7C102.2,9.6,100.7,9.5,99.9,10.4z"/><path id="Combined-Shape-Copy-60" class="st3" d="M109.1,14.6L93.2,32.3c-0.9,0.9-0.5,2.4,0.6,3c5.6,2.5,12.2,1.1,16.4-3.6 c4.2-4.7,4.9-11.4,1.8-16.7C111.5,13.8,110,13.7,109.1,14.6z"/><path id="Rectangle-130-Copy-37" class="st4" d="M100.9,19.5h0.6c11.7,0,21.1,9.5,21.1,21.1v11.2c0,11.7-9.5,21.1-21.1,21.1H101 c-11.6,0-21-9.4-21.1-21l-0.1-11.2C79.7,29,89.1,19.5,100.9,19.5C100.8,19.5,100.9,19.5,100.9,19.5z"/></g><g id="mouth"><path id="lower_beak" class="st0" d="M74.7,51.9L74.7,51.9c4.1,0,7.5,3.4,7.5,7.5v2.4c0,4.1-3.4,7.5-7.5,7.5l0,0 c-4.1,0-7.5-3.4-7.5-7.5v-2.4C67.2,55.3,70.6,51.9,74.7,51.9z"/><g id="upper_beak"><path id="glare_2_" class="st5" d="M64.3,59.9c0.9-4.6,5.3-8,10.5-8c4.9,0,9.2,3.5,10.1,8v0.4c0,0.3-0.1,0.5-0.4,0.4l-9.7,1.7 c-0.2,0-0.2,0-0.4,0l-9.7-1.7c-0.3,0-0.4-0.1-0.4-0.4V59.9z"/><path class="st6" d="M76.9,56.8c-0.2,0-0.3,0-0.5-0.1c-1.3-0.5-2.5-0.5-3.6,0c-0.8,0.3-1.6-0.1-1.9-0.8c-0.3-0.8,0.1-1.6,0.8-1.9 c1.8-0.7,3.7-0.7,5.7,0c0.8,0.3,1.2,1.1,0.9,1.9C78.1,56.4,77.5,56.8,76.9,56.8z"/></g></g><g id="left_eye"><path id="eye_ball_1_" class="st7" d="M48.7,27.1L48.7,27.1c8.1,0,14.7,6.6,14.7,14.7v8.9c0,8.1-6.6,14.7-14.7,14.7l0,0 c-8.1,0-14.7-6.6-14.7-14.7v-8.9C34,33.7,40.6,27.1,48.7,27.1z"/><path id="pupil_1_" class="st8" d="M51,35.5L51,35.5c3.8,0,6.9,3.1,6.9,6.9V50c0,3.8-3.1,6.9-6.9,6.9l0,0c-3.8,0-6.9-3.1-6.9-6.9 v-7.6C44.1,38.6,47.2,35.5,51,35.5z"/><ellipse id="glare_1_" class="st7" cx="45.2" cy="39.6" rx="4.5" ry="4.5"/></g><g id="right_eye"><path id="eye_ball" class="st7" d="M100.4,27.1L100.4,27.1c8.1,0,14.7,6.6,14.7,14.7v8.9c0,8.1-6.6,14.7-14.7,14.7l0,0 c-8.1,0-14.7-6.6-14.7-14.7v-8.9C85.7,33.7,92.3,27.1,100.4,27.1z"/><path id="pupil" class="st8" d="M98.1,35.5L98.1,35.5c3.8,0,6.9,3.1,6.9,6.9V50c0,3.8-3.1,6.9-6.9,6.9l0,0c-3.8,0-6.9-3.1-6.9-6.9 v-7.6C91.2,38.6,94.3,35.5,98.1,35.5z"/><ellipse id="glare" class="st7" cx="91.5" cy="39.6" rx="4.5" ry="4.5"/></g></g></svg>