<?xml version="1.0" encoding="UTF-8"?><svg width="46px" height="42px" viewBox="0 0 46 42" version="1.1" xmlns="http://www.w3.org/2000/svg" xmlns:xlink="http://www.w3.org/1999/xlink"><title>crown</title><desc>Created with Sketch.</desc><g id="crown" stroke="none" strokeWidth="1" fill="none" fillRule="evenodd"><path d="M5.11148627,8.9814978 L10.7088804,13.4009916 C11.1044955,13.7133546 11.6748253,13.6641445 12.0110881,13.2886325 L20.4261792,3.89131815 C21.8324621,2.32089157 24.2455619,2.18782684 25.8159885,3.59410975 C25.8886526,3.65917894 25.9587959,3.72700955 26.0262638,3.79745219 L35.1354697,13.3082982 C35.4844267,13.6726413 36.0566931,13.7024057 36.441565,13.37623 L41.6271412,8.9814978 C42.6626947,8.10387493 44.2136306,8.231903 45.0912534,9.26745649 C45.6055363,9.87428601 45.7943451,10.6924835 45.5979716,11.4633054 L39.3576514,35.9583423 C39.0176716,37.2928601 37.815905,38.2268519 36.4387615,38.2268519 L9.86915124,38.2268519 C8.49200779,38.2268519 7.29024117,37.2928601 6.95026134,35.9583423 L0.792252532,11.7864011 C0.421578442,10.3313996 1.30059952,8.85139704 2.75560106,8.48072295 C3.57603197,8.27171116 4.4470049,8.45684808 5.11148627,8.9814978 Z" id="Mask" fill="#FFC800"/><path d="M8.57303757,15.1591435 L10.3480366,16.7819882 C10.9619121,17.3432418 11.9145425,17.3005833 12.4757961,16.6867078 C12.4993718,16.6609217 12.522043,16.634323 12.5437687,16.60696 L16.9610082,11.0435355 C17.6164168,10.2180615 18.8169094,10.0801963 19.6423834,10.7356049 C20.0595077,11.0667926 20.3192588,11.5572208 20.358859,12.088361 L21.9247412,33.0908265 C22.0031086,34.1419337 21.2145473,35.0575539 20.1634401,35.1359213 C20.116223,35.1394417 20.0688913,35.1412037 20.0215432,35.1412037 L12.6196299,35.1412037 C11.7391375,35.1412037 10.972927,34.5388372 10.7650833,33.6832276 L6.55522071,16.3528985 C6.39545171,15.6951931 6.79910892,15.0324992 7.45681431,14.8727302 C7.85336836,14.7763997 8.27185693,14.8837803 8.57303757,15.1591435 Z" id="Rectangle-165" fill="#FFDE00"/></g></svg>