<svg width="49" height="49" viewBox="0 0 49 49" version="1.1" xmlns="http://www.w3.org/2000/svg"><title>feature-streak</title><g stroke="none" stroke-width="1" fill="none" fill-rule="evenodd"><g transform="translate(13 10)"><ellipse fill="#FF9600" cx="12" cy="18.106" rx="12" ry="11.894"/><path d="M13.766.903l7.604 9.756a2.09 2.09 0 0 1-1.649 3.375H4.28A2.09 2.09 0 0 1 2.63 10.66L10.234.903a2.24 2.24 0 0 1 3.532 0z" fill="#FF9600"/><path d="M3.452 4.95l15.367 9.895a2.09 2.09 0 0 1-.961 3.84l-15.597 1.28A2.09 2.09 0 0 1 0 17.884V6.833A2.24 2.24 0 0 1 3.452 4.95z" fill="#FF9600"/><g transform="translate(6.879 12.424)" fill="#FFC800"><ellipse cx="5.121" cy="7.681" rx="5.121" ry="5.046"/><path d="M5.876.384l3.231 4.122a.895.895 0 0 1-.704 1.448H1.839a.895.895 0 0 1-.704-1.448L4.366.384a.96.96 0 0 1 1.51 0z"/></g></g></g></svg>