<?xml version="1.0" standalone="no"?>
<!DOCTYPE svg PUBLIC "-//W3C//DTD SVG 20010904//EN"
 "http://www.w3.org/TR/2001/REC-SVG-20010904/DTD/svg10.dtd">
<svg version="1.0" xmlns="http://www.w3.org/2000/svg"
 width="465.000000pt" height="536.000000pt" viewBox="0 0 465.000000 536.000000"
 preserveAspectRatio="xMidYMid meet">

<g transform="translate(0.000000,536.000000) scale(0.100000,-0.100000)"
fill="#000000" stroke="none">
<path d="M2545 4815 c-47 -46 -24 -135 35 -135 52 0 79 47 60 105 -19 57 -57
69 -95 30z m67 -12 c22 -20 23 -61 1 -85 -20 -22 -27 -22 -47 -2 -29 28 -16
104 18 104 5 0 18 -7 28 -17z"/>
<path d="M2157 4753 c-12 -11 -8 -68 5 -81 36 -36 83 16 58 63 -13 24 -48 34
-63 18z m51 -27 c6 -27 -6 -46 -23 -40 -15 6 -21 45 -8 58 11 10 28 1 31 -18z"/>
<path d="M2306 4681 c-49 -55 6 -162 67 -130 12 7 25 17 29 23 14 20 9 94 -8
110 -21 22 -67 20 -88 -3z m78 -13 c9 -12 16 -30 16 -38 0 -25 -25 -54 -41
-48 -8 3 -18 6 -24 6 -13 1 -25 39 -18 60 17 46 43 54 67 20z"/>
<path d="M2200 4410 c-152 -19 -288 -98 -370 -216 -26 -37 -34 -41 -107 -57
-95 -20 -196 -68 -279 -130 -215 -163 -337 -411 -428 -873 -20 -100 -39 -213
-42 -253 -4 -39 -11 -74 -16 -77 -15 -9 -143 83 -189 135 -56 63 -120 175
-149 260 l-24 71 38 70 c38 72 55 152 42 204 -7 30 -43 56 -82 60 -25 3 -30 9
-39 52 -8 39 -16 52 -38 62 -38 18 -97 8 -104 -18 -5 -18 -6 -18 -33 2 -22 16
-37 19 -63 14 -60 -11 -87 -62 -63 -119 13 -33 13 -37 -5 -53 -75 -68 17 -268
141 -305 29 -9 45 -21 53 -38 110 -266 226 -422 396 -533 l84 -55 3 -399 c4
-425 12 -527 54 -637 27 -71 74 -134 119 -161 27 -15 51 -20 105 -19 l71 1 70
-66 c104 -99 178 -144 371 -227 28 -12 32 -20 52 -109 l23 -97 -57 -52 c-63
-57 -114 -149 -114 -204 0 -22 10 -43 29 -65 24 -28 36 -32 90 -36 77 -6 132
14 185 65 52 51 66 88 66 180 0 99 -14 151 -45 165 -16 7 -25 22 -29 50 -4 23
-4 43 -1 46 2 3 55 0 117 -6 260 -26 401 -26 693 1 30 3 23 -44 -14 -90 -40
-51 -61 -112 -67 -203 -4 -60 -2 -82 13 -110 51 -99 197 -109 266 -18 54 71
41 211 -27 285 l-33 36 21 64 20 63 86 26 c201 61 329 145 443 289 l40 50 91
0 c81 0 96 3 138 27 91 54 160 164 193 308 10 43 19 140 22 228 l6 152 35 -6
c19 -4 51 -17 70 -30 40 -28 104 -32 157 -10 42 18 59 48 51 91 -4 18 -1 44 5
59 19 40 -4 83 -52 98 -28 8 -41 18 -45 35 -8 31 -41 53 -81 53 -40 0 -59 -19
-68 -70 -7 -41 -34 -70 -66 -70 -13 0 -17 16 -23 92 -9 122 -30 267 -67 473
-98 545 -246 879 -504 1140 -113 114 -235 188 -395 240 -71 23 -104 28 -201
29 -108 1 -118 3 -150 27 -118 89 -249 126 -389 109z m233 -50 c28 -11 83 -41
121 -67 l69 -47 101 2 c84 3 116 -1 189 -22 185 -55 290 -118 419 -255 206
-219 322 -441 409 -784 88 -345 141 -765 141 -1117 1 -179 -2 -215 -21 -285
-55 -205 -144 -304 -272 -305 -65 0 -101 29 -98 79 5 83 0 89 -27 34 -64 -133
-221 -182 -341 -106 -32 19 -49 39 -57 62 -15 46 -32 49 -40 9 -10 -48 -100
-132 -158 -146 -69 -18 -126 -15 -176 9 -49 24 -102 89 -102 126 0 33 -16 29
-23 -6 -13 -63 -133 -147 -227 -158 -79 -9 -146 13 -201 66 -27 26 -50 59 -54
76 -13 58 -15 59 -38 24 -34 -51 -82 -74 -152 -73 -95 1 -153 42 -162 115 -3
22 -9 39 -12 39 -4 0 -15 -24 -24 -54 -30 -95 -121 -158 -228 -157 -98 0 -161
26 -210 86 -14 16 -14 21 -4 30 9 6 12 21 8 38 -6 32 -21 35 -32 6 -6 -19 -10
-16 -28 27 -11 27 -27 67 -34 89 -21 64 -29 63 -30 -1 0 -32 -3 -53 -6 -46 -6
16 -18 15 -38 -4 -12 -12 -13 -19 -4 -30 15 -19 36 -18 47 2 7 12 14 1 31 -45
12 -33 33 -74 46 -89 14 -16 22 -32 18 -36 -3 -3 -26 -6 -50 -6 -37 0 -50 6
-87 40 -53 49 -73 88 -99 195 -18 71 -20 124 -24 493 l-4 412 36 0 c61 0 39
23 -73 77 -190 91 -294 201 -407 429 -30 61 -55 115 -55 121 0 6 16 14 35 17
19 4 41 13 49 21 17 17 19 15 36 -40 7 -22 35 -84 63 -138 66 -127 142 -212
236 -261 66 -34 150 -66 179 -66 24 0 12 28 -18 40 -36 15 -36 21 -15 187 32
242 117 550 197 708 45 89 111 177 186 248 103 95 277 191 341 186 54 -3 66 2
83 32 11 18 22 27 29 23 8 -4 9 -3 5 4 -8 14 42 84 54 77 5 -3 15 2 23 10 9 8
18 15 21 15 2 0 32 18 65 40 33 22 73 45 88 51 84 33 218 32 306 -1z m-1920
-667 c23 -27 31 -84 14 -107 -12 -16 -21 -18 -60 -12 l-47 7 0 49 c0 39 4 52
22 64 29 21 51 20 71 -1z m-153 -11 c16 -13 23 -30 24 -57 1 -32 -4 -41 -25
-54 -24 -13 -29 -13 -58 8 -53 38 -35 112 30 120 4 1 17 -7 29 -17z m270 -112
c28 -15 34 -62 15 -127 -43 -151 -133 -215 -247 -177 -111 37 -192 207 -124
263 19 16 198 26 223 13 17 -9 26 -7 49 13 31 27 54 31 84 15z m3478 -1162
c22 -22 14 -63 -18 -86 -23 -17 -30 -30 -30 -57 0 -53 18 -64 86 -53 59 9 74
3 74 -32 0 -38 -41 -60 -112 -60 -59 0 -98 24 -98 60 0 25 -18 36 -26 16 -7
-19 -64 -22 -65 -3 -6 69 -6 69 41 87 41 16 46 21 52 58 10 61 25 82 56 82 16
0 33 -5 40 -12z m102 -92 c6 -8 10 -25 8 -38 -2 -18 -11 -24 -41 -29 -21 -3
-43 -11 -50 -18 -16 -16 -27 -14 -27 5 0 8 -4 12 -10 9 -11 -7 -13 25 -2 41
27 39 99 57 122 30z m-2456 -847 c73 -52 178 -53 252 -3 34 24 38 24 47 8 48
-85 144 -138 252 -138 84 0 135 20 217 87 l58 47 15 -24 c24 -36 84 -74 139
-86 89 -20 182 11 268 88 l37 34 33 -25 c88 -65 235 -63 329 4 66 47 49 -16
-27 -100 -186 -205 -503 -301 -997 -301 -328 0 -538 34 -739 121 -99 43 -179
93 -245 154 l-58 54 49 -16 c96 -31 221 6 288 87 18 22 34 40 35 40 1 0 22
-14 47 -31z m125 -415 c8 -7 19 -89 13 -96 -4 -4 -25 -4 -48 -1 -41 5 -41 6
-51 59 l-10 55 46 -7 c25 -4 48 -8 50 -10z m991 3 c0 -2 -9 -30 -20 -62 -22
-63 -26 -100 -10 -90 34 21 90 -72 90 -150 0 -57 -37 -129 -72 -139 -82 -21
-151 9 -169 76 -14 55 -7 152 17 201 16 33 22 37 56 37 21 0 38 5 38 10 0 6
-9 10 -20 10 -11 0 -20 1 -20 3 0 1 6 22 14 47 9 33 20 46 37 51 27 8 59 11
59 6z m-923 -140 c13 -13 17 -34 16 -100 -1 -127 -43 -193 -136 -218 -48 -13
-99 -7 -133 16 -45 29 -24 118 47 200 23 26 38 35 58 33 22 -3 26 1 25 22 -1
14 -4 33 -8 42 -6 12 -2 17 16 20 53 7 99 2 115 -15z"/>
<path d="M2677 4073 c-23 -22 10 -67 41 -56 19 7 14 41 -7 53 -23 12 -26 12
-34 3z"/>
<path d="M2016 3904 c-19 -19 -20 -25 -3 -48 18 -25 61 -18 65 10 3 21 -21 54
-38 54 -5 0 -16 -7 -24 -16z m44 -24 c0 -5 -4 -10 -9 -10 -6 0 -13 5 -16 10
-3 6 1 10 9 10 9 0 16 -4 16 -10z"/>
<path d="M1370 3820 c-13 -8 -12 -10 3 -10 9 0 17 5 17 10 0 12 -1 12 -20 0z"/>
<path d="M1325 3800 c3 -5 8 -10 11 -10 2 0 4 5 4 10 0 6 -5 10 -11 10 -5 0
-7 -4 -4 -10z"/>
<path d="M3342 3758 c-19 -19 -14 -35 15 -57 24 -20 27 -20 45 -5 22 21 23 38
2 58 -18 19 -45 21 -62 4z m51 -13 c8 -18 -11 -31 -25 -17 -11 11 -3 32 12 32
4 0 10 -7 13 -15z"/>
<path d="M1290 3689 c0 -5 5 -7 10 -4 6 3 10 8 10 11 0 2 -4 4 -10 4 -5 0 -10
-5 -10 -11z"/>
<path d="M1365 3610 c-3 -5 1 -10 9 -10 8 0 18 5 21 10 3 6 -1 10 -9 10 -8 0
-18 -4 -21 -10z"/>
<path d="M1595 3571 c-55 -32 -82 -57 -71 -68 4 -4 15 -2 24 5 70 49 106 64
153 65 64 1 59 21 -7 25 -39 2 -59 -4 -99 -27z"/>
<path d="M1240 3570 c0 -5 5 -10 11 -10 5 0 7 5 4 10 -3 6 -8 10 -11 10 -2 0
-4 -4 -4 -10z"/>
<path d="M1286 3571 c-4 -7 -5 -15 -2 -18 9 -9 19 4 14 18 -4 11 -6 11 -12 0z"/>
<path d="M1375 3550 c-3 -5 -1 -10 4 -10 6 0 11 5 11 10 0 6 -2 10 -4 10 -3 0
-8 -4 -11 -10z"/>
<path d="M3275 3530 c-4 -6 6 -10 24 -10 41 0 77 -15 122 -51 37 -29 60 -27
36 4 -28 36 -90 67 -133 67 -23 0 -46 -4 -49 -10z"/>
<path d="M1315 3520 c-8 -13 5 -13 25 0 13 8 13 10 -2 10 -9 0 -20 -4 -23 -10z"/>
<path d="M3555 3509 c-10 -14 -1 -21 19 -13 9 3 13 10 10 15 -7 12 -21 11 -29
-2z"/>
<path d="M1240 3494 c0 -17 22 -14 28 4 2 7 -3 12 -12 12 -9 0 -16 -7 -16 -16z"/>
<path d="M1266 3441 c-7 -11 22 -23 35 -15 5 3 9 9 9 15 0 12 -37 12 -44 0z"/>
<path d="M3517 3394 c-9 -9 4 -34 18 -34 8 0 11 8 8 20 -5 20 -15 25 -26 14z"/>
<path d="M3546 3272 c-3 -6 -1 -14 5 -17 15 -10 25 3 12 16 -7 7 -13 7 -17 1z"/>
<path d="M1230 3040 c0 -5 5 -10 10 -10 6 0 10 5 10 10 0 6 -4 10 -10 10 -5 0
-10 -4 -10 -10z"/>
<path d="M1659 2984 c-19 -21 -24 -36 -24 -83 0 -122 94 -179 169 -104 46 46
31 157 -26 197 -35 25 -90 20 -119 -10z m72 -20 c17 -21 0 -49 -32 -49 -27 0
-37 28 -19 50 16 19 34 19 51 -1z"/>
<path d="M3302 2993 c-41 -16 -55 -126 -22 -180 25 -41 54 -56 94 -49 126 24
104 238 -23 235 -20 0 -42 -3 -49 -6z m62 -49 c7 -19 -10 -54 -27 -54 -35 0
-50 52 -20 68 20 12 39 6 47 -14z"/>
<path d="M1974 2928 c-8 -13 49 -68 72 -68 9 0 12 -5 8 -11 -14 -23 -22 -157
-14 -229 22 -194 119 -308 320 -376 85 -29 319 -27 415 3 131 41 252 138 280
224 29 86 14 308 -24 377 -7 13 -2 23 22 44 23 19 29 29 21 37 -8 8 -15 6 -29
-9 -19 -21 -69 -27 -80 -10 -3 6 -13 10 -22 10 -12 0 -13 -3 -3 -15 15 -19 7
-31 -39 -55 -85 -43 -197 -63 -356 -64 -165 -1 -225 9 -350 56 -94 36 -95 37
-72 49 17 10 24 39 10 39 -5 0 -19 -9 -33 -20 -34 -27 -65 -25 -88 5 -22 28
-28 30 -38 13z m751 -382 c64 -30 107 -76 141 -149 32 -72 29 -77 -77 -114
-98 -34 -280 -43 -382 -19 -67 16 -154 53 -191 81 -18 14 -18 15 8 49 33 43
97 89 151 106 22 7 74 14 115 14 64 1 83 -4 130 -28 40 -21 51 -24 40 -11 -20
24 -88 55 -122 55 -38 0 -35 17 5 29 59 17 129 12 182 -13z"/>
<path d="M3327 2614 c-14 -14 -7 -35 11 -32 9 2 17 10 17 17 0 16 -18 25 -28
15z"/>
<path d="M3540 2606 c0 -10 9 -16 21 -16 24 0 21 23 -4 28 -10 2 -17 -3 -17
-12z"/>
<path d="M3432 2593 c2 -10 10 -18 18 -18 22 0 18 29 -3 33 -14 3 -18 -1 -15
-15z"/>
<path d="M1613 2593 c-21 -7 -15 -33 7 -33 11 0 20 6 20 14 0 18 -11 25 -27
19z"/>
<path d="M1721 2576 c-12 -14 -5 -26 16 -26 15 0 18 26 4 34 -5 3 -14 0 -20
-8z"/>
<path d="M1470 2564 c0 -9 7 -14 17 -12 25 5 28 28 4 28 -12 0 -21 -6 -21 -16z"/>
<path d="M1242 2328 c6 -18 28 -21 28 -4 0 9 -7 16 -16 16 -9 0 -14 -5 -12
-12z"/>
<path d="M1266 2271 c-3 -5 1 -11 9 -15 9 -3 15 0 15 9 0 16 -16 20 -24 6z"/>
<path d="M1210 2141 c0 -6 5 -13 10 -16 6 -3 10 1 10 9 0 9 -4 16 -10 16 -5 0
-10 -4 -10 -9z"/>
<path d="M2422 2018 c2 -7 24 -23 49 -36 63 -31 157 -32 228 -2 50 22 73 49
29 35 -129 -40 -173 -41 -257 -4 -51 22 -54 23 -49 7z"/>
<path d="M1036 1983 c-12 -12 -6 -33 9 -33 8 0 15 6 15 14 0 17 -14 28 -24 19z"/>
<path d="M3767 1764 c-8 -8 1 -24 13 -24 4 0 10 7 14 15 5 15 -14 21 -27 9z"/>
<path d="M1013 1744 c-7 -18 11 -39 26 -30 17 11 13 46 -4 46 -9 0 -18 -7 -22
-16z"/>
<path d="M1240 1735 c0 -18 5 -25 19 -25 26 0 36 17 21 35 -19 23 -40 18 -40
-10z"/>
<path d="M1430 1750 c0 -5 5 -10 10 -10 6 0 10 5 10 10 0 6 -4 10 -10 10 -5 0
-10 -4 -10 -10z"/>
<path d="M1930 1719 c0 -5 5 -7 10 -4 6 3 10 8 10 11 0 2 -4 4 -10 4 -5 0 -10
-5 -10 -11z"/>
<path d="M1362 1708 c-19 -19 -14 -46 10 -59 18 -10 24 -8 35 7 11 15 11 21 0
38 -17 25 -30 29 -45 14z"/>
<path d="M1472 1648 c2 -12 10 -23 18 -23 22 0 19 39 -3 43 -15 3 -18 -1 -15
-20z"/>
<path d="M1932 1644 c2 -11 11 -20 22 -22 13 -3 17 1 14 14 -2 11 -11 20 -22
22 -13 3 -17 -1 -14 -14z"/>
<path d="M3719 1614 c-10 -13 -10 -17 1 -24 18 -11 30 -3 30 21 0 23 -13 25
-31 3z"/>
<path d="M1577 1614 c-4 -4 -7 -16 -7 -26 0 -14 6 -19 23 -16 14 2 22 10 22
23 0 20 -25 32 -38 19z"/>
<path d="M2623 1584 c-3 -8 -1 -20 5 -26 16 -16 42 -2 42 22 0 24 -38 28 -47
4z"/>
<path d="M1290 1583 c0 -5 6 -18 14 -29 12 -15 18 -17 33 -8 29 18 22 39 -14
42 -18 2 -33 -1 -33 -5z"/>
<path d="M1095 1561 c-8 -15 3 -31 21 -31 9 0 14 7 12 17 -4 20 -24 28 -33 14z"/>
<path d="M3205 1560 c-4 -7 -3 -16 3 -22 14 -14 45 -2 40 15 -6 16 -34 21 -43
7z"/>
<path d="M1811 1546 c-9 -10 -8 -16 4 -26 19 -16 41 1 32 24 -8 20 -21 20 -36
2z"/>
<path d="M1483 1534 c-9 -25 13 -40 26 -16 8 16 7 21 -5 26 -8 3 -17 -1 -21
-10z"/>
<path d="M2415 1540 c4 -6 11 -8 16 -5 14 9 11 15 -7 15 -8 0 -12 -5 -9 -10z"/>
<path d="M2774 1536 c-8 -21 3 -36 27 -36 15 0 20 6 17 22 -4 27 -35 37 -44
14z"/>
<path d="M3280 1531 c0 -28 19 -36 38 -17 15 15 15 18 2 26 -24 15 -40 12 -40
-9z"/>
<path d="M3583 1543 c-18 -7 -16 -30 4 -37 21 -8 38 8 30 28 -7 16 -13 18 -34
9z"/>
<path d="M1437 1533 c-12 -11 -8 -23 8 -23 8 0 15 7 15 15 0 16 -12 20 -23 8z"/>
<path d="M2346 1497 c-16 -12 -16 -14 -2 -26 20 -17 49 -6 44 16 -4 22 -20 26
-42 10z"/>
<path d="M2660 1496 c0 -7 7 -19 15 -26 19 -16 41 1 32 24 -8 20 -47 21 -47 2z"/>
<path d="M1545 1490 c-8 -13 3 -30 20 -30 20 0 30 21 14 31 -18 11 -26 11 -34
-1z"/>
<path d="M2192 1473 c4 -22 43 -25 43 -3 0 8 -11 16 -23 18 -19 3 -23 0 -20
-15z"/>
<path d="M2727 1454 c-14 -14 -7 -25 13 -22 12 2 21 8 21 13 0 12 -24 18 -34
9z"/>
<path d="M481 3476 c-28 -16 -50 -52 -51 -84 0 -32 16 -19 23 18 9 42 45 58
86 37 39 -20 44 2 6 27 -29 19 -33 19 -64 2z"/>
<path d="M300 3461 c0 -5 13 -11 29 -14 21 -4 32 -15 40 -38 6 -18 14 -30 17
-26 11 11 -8 67 -26 77 -23 12 -60 13 -60 1z"/>
<path d="M3072 1254 c14 -14 21 -15 30 -6 8 8 9 12 1 12 -6 0 -20 3 -30 6 -17
7 -17 6 -1 -12z"/>
<path d="M1705 1250 c-3 -5 -1 -10 4 -10 6 0 11 5 11 10 0 6 -2 10 -4 10 -3 0
-8 -4 -11 -10z"/>
</g>
</svg>
