<svg width="93" height="117" viewBox="0 0 93 117" fill="none" xmlns="http://www.w3.org/2000/svg"><path d="M25.528 96.5258C28.7216 94.1835 33.2094 94.8736 35.5517 98.0672C37.8939 101.261 37.2038 105.749 34.0102 108.091L28.6558 112.018C25.4622 114.36 20.9744 113.67 18.6321 110.477C16.2898 107.283 16.9799 102.795 20.1736 100.453L25.528 96.5258Z" fill="#E619DF"/><path fillRule="evenodd" clipRule="evenodd" d="M23.9036 97.7185C26.0606 100.896 25.3311 105.236 22.2091 107.525L18.4782 110.262C16.3212 107.085 17.0507 102.745 20.1727 100.455L23.9036 97.7185Z" fill="#C128C1"/><path d="M11.1374 94.9738C14.331 92.6315 18.8187 93.3216 21.161 96.5152C23.5033 99.7089 22.8132 104.197 19.6196 106.539L14.2652 110.466C11.0715 112.808 6.58378 112.118 4.24149 108.925C1.89919 105.731 2.58932 101.243 5.78294 98.9009L11.1374 94.9738Z" fill="#E619DF"/><path d="M5.60632 71.6076L26.7145 21.5627C36.7072 20.2666 48.829 37.8347 41.7074 58.3144C35.4141 76.4124 19.9605 80.0822 7.57849 76.2094C5.66416 75.6107 4.82682 73.4557 5.60632 71.6076Z" fill="url(#paint0_radial_5753_188720)"/><path d="M62.0558 8.02631C58.2743 7.46608 42.804 -5.51802 24.9476 2.74122C18.1727 5.87487 14.9215 11.5144 13.9056 19.9323C13.0054 27.3918 16.0419 34.9778 18.394 43.1123C15.4309 52.4659 13.4913 58.9833 16.6383 67.2113C22.3967 82.2668 40.7507 97.9523 65.238 89.2002C102.073 76.0349 91.417 30.4103 88.6158 20.3262C85.8147 10.2421 79.587 5.64607 74.4049 6.06624C69.2228 6.48641 65.8374 8.58653 62.0558 8.02631Z" fill="url(#paint1_radial_5753_188720)"/><path fillRule="evenodd" clipRule="evenodd" d="M24.5859 79.7731C29.3465 78.2484 34.7231 75.2371 40.0314 69.3628C40.6682 68.6582 40.6131 67.5708 39.9085 66.934C39.2038 66.2973 38.1164 66.3523 37.4797 67.0569C32.5664 72.494 27.6959 75.1717 23.5032 76.5085C23.0421 76.6555 22.5884 76.7866 22.1426 76.9036C22.9037 77.8863 23.7189 78.8456 24.5859 79.7731Z" fill="#1F66FB"/><path fillRule="evenodd" clipRule="evenodd" d="M88.0292 24.7259C87.1609 18.0862 83.67 15.436 81.3309 15.7419C78.9918 16.0477 79.288 19.0068 80.1563 25.6465C80.4874 28.1784 80.6276 29.5431 80.7002 30.3603C82.3058 31.5122 83.4631 33.3037 83.4631 35.3642C83.0598 35.4891 82.6181 35.5955 82.1471 35.6845C82.5955 36.67 83.1492 37.6652 83.7741 38.3876C85.5186 36.2821 87.6505 34.9362 89.1475 34.237C89.1263 33.4647 89.0521 32.5756 88.9182 31.5513L88.0292 24.7259Z" fill="#C7FFFE"/><path fillRule="evenodd" clipRule="evenodd" d="M80.7005 30.3637C81.4679 30.9143 82.1329 31.611 82.6181 32.4133L82.7269 32.3979C84.5169 32.1448 85.7627 30.4887 85.5096 28.6987L84.3889 20.7724C84.1511 19.0911 82.6756 17.8899 81.0139 17.9599C81.6717 18.4271 82.1008 19.195 82.1008 20.0631C82.1008 21.4003 81.0827 22.4997 79.7793 22.6284C79.8828 23.5362 80.0117 24.5418 80.1566 25.6498C80.4877 28.1818 80.6279 29.5465 80.7005 30.3637Z" fill="#3C4DFF"/><path fillRule="evenodd" clipRule="evenodd" d="M51.9645 11.8564C58.3803 11.0174 64.2852 15.7198 65.1535 22.3595L66.0378 29.122C66.5913 33.354 64.9649 37.3516 62.0514 39.9116C57.8515 36.7567 51.1245 32.9239 42.7956 32.095L41.9198 25.3977C41.0515 18.758 45.5487 12.6954 51.9645 11.8564Z" fill="#C7FFFE"/><path fillRule="evenodd" clipRule="evenodd" d="M52.7348 22.3191C54.753 21.9757 56.1087 20.0907 55.7628 18.109C55.6605 17.5229 55.4208 16.9939 55.0817 16.5485C55.5001 16.3671 55.9481 16.2322 56.4198 16.1519C59.4719 15.6325 62.3621 17.5944 62.8751 20.5339L63.866 26.2113C64.379 29.1508 62.3207 31.9548 59.2685 32.4743C56.2164 32.9937 53.3262 31.0318 52.8132 28.0923L51.8223 22.415C51.8192 22.3975 51.8163 22.38 51.8134 22.3625C52.1145 22.3853 52.4234 22.3721 52.7348 22.3191Z" fill="#3C4DFF"/><path fillRule="evenodd" clipRule="evenodd" d="M70.6917 36.9469C71.2319 36.894 71.7126 37.2891 71.7654 37.8292C72.1827 42.0957 73.3042 44.9603 74.8288 46.298C75.555 46.9352 76.3855 47.2403 77.3588 47.1941C78.3607 47.1466 79.5866 46.7216 81.0448 45.7494C81.4963 45.4484 82.1064 45.5704 82.4075 46.022C82.7085 46.4735 82.5865 47.0836 82.1349 47.3847C80.4932 48.4791 78.9245 49.0874 77.4519 49.1572C75.9505 49.2284 74.6265 48.7351 73.5326 47.7753C71.4173 45.9192 70.2374 42.3961 69.8094 38.0205C69.7566 37.4804 70.1516 36.9997 70.6917 36.9469Z" fill="#0455FF"/><path d="M77.8484 44.5591C75.3619 44.1544 75.1017 42.275 73.3379 35.6829L79.9302 35.6829C80.0747 36.7816 80.4795 40.1644 80.6819 41.61C80.9256 43.3511 79.9879 44.9073 77.8484 44.5591Z" fill="#0455FF"/><path fillRule="evenodd" clipRule="evenodd" d="M72.9609 30.1027C73.3536 30.477 73.9575 30.751 74.8002 30.7869C74.8892 30.7907 74.9769 30.7941 75.0635 30.7975C76.6878 30.8613 77.9017 30.909 79.0355 32.8674C79.5528 33.7608 81.8304 33.7403 82.2034 31.801C80.8895 30.0953 78.7377 28.9992 76.6786 28.9993C75.2748 28.9993 74.0018 29.4228 72.9609 30.1027Z" fill="#C7FFFE"/><path fillRule="evenodd" clipRule="evenodd" d="M69.5248 34.9958C69.6631 34.471 70.2006 34.1576 70.7254 34.2958C75.3724 35.52 79.7114 35.0331 82.3809 34.4992C82.913 34.3928 83.4307 34.7379 83.5371 35.2701C83.6436 35.8022 83.2985 36.3199 82.7663 36.4264C79.9424 36.9912 75.2727 37.5261 70.2248 36.1963C69.7 36.0581 69.3866 35.5205 69.5248 34.9958Z" fill="#0455FF"/><path fillRule="evenodd" clipRule="evenodd" d="M40.8293 5.00071C40.2848 4.79817 39.7532 4.78131 39.2086 5.11282C38.745 5.39501 38.1405 5.24798 37.8583 4.78442C37.5761 4.32085 37.7231 3.71629 38.1867 3.4341C39.3705 2.71344 40.5593 2.80345 41.5144 3.1587C42.4368 3.50175 43.1856 4.10322 43.6367 4.50424C44.0423 4.86479 44.0789 5.4859 43.7183 5.89152C43.3578 6.29714 42.7366 6.33368 42.331 5.97313C41.9368 5.62266 41.4066 5.21544 40.8293 5.00071Z" fill="#C7FFFE"/><path fillRule="evenodd" clipRule="evenodd" d="M73.3236 6.92608C73.7864 6.64262 74.3914 6.788 74.6748 7.2508C75.9008 9.25243 76.2589 11.107 75.6472 12.5618C75.014 14.0678 73.5135 14.7611 71.9104 14.7611C71.3677 14.7611 70.9277 14.3212 70.9277 13.7785C70.9277 13.2358 71.3677 12.7958 71.9104 12.7958C72.9856 12.7958 73.5995 12.3615 73.8355 11.8001C74.0931 11.1874 74.0753 10.0347 72.9989 8.27729C72.7154 7.81449 72.8608 7.20953 73.3236 6.92608Z" fill="#1F66FB"/><path fillRule="evenodd" clipRule="evenodd" d="M39.1365 3.44863C39.6123 3.70958 39.7865 4.30688 39.5256 4.78273C38.456 6.73311 38.9862 9.12027 39.3122 10.0982L39.5522 10.8183L38.9162 11.2324C38.7283 11.3548 38.3856 11.6837 37.9676 12.2603C37.5644 12.8166 37.1344 13.5435 36.7511 14.3924C35.9812 16.0973 35.4309 18.2232 35.6022 20.3824C36.0741 26.3285 36.727 32.3158 37.7205 35.477C37.7656 35.6204 37.811 35.7676 37.8575 35.9182C38.3585 37.5404 38.9812 39.557 40.5445 41.4369C42.2254 43.4582 45.075 45.4018 50.282 46.2621C58.7008 47.653 63.5222 45.0973 64.7458 43.8993C65.1335 43.5196 65.7557 43.5261 66.1354 43.9139C66.5151 44.3017 66.5085 44.9238 66.1207 45.3035C64.3384 47.0487 58.8269 49.6658 49.9617 48.2011C44.3661 47.2766 41.063 45.1341 39.0334 42.6935C37.2069 40.4971 36.4783 38.1237 35.9827 36.5095C35.9351 36.3545 35.8897 36.2064 35.8456 36.0662C34.7726 32.652 34.1105 26.4276 33.6431 20.5379C33.4387 17.9627 34.0939 15.5014 34.9599 13.5835C35.3946 12.621 35.8902 11.7776 36.3764 11.1069C36.6604 10.7151 36.9585 10.358 37.2568 10.0669C36.899 8.66982 36.5506 6.12038 37.8024 3.83773C38.0633 3.36188 38.6606 3.18768 39.1365 3.44863Z" fill="#1F66FB"/><path fillRule="evenodd" clipRule="evenodd" d="M92.1644 43.061C91.9361 43.5065 91.4987 44.0577 90.8757 44.3903C90.2289 44.7356 89.2789 44.903 87.9227 44.2722C87.4306 44.0433 86.8462 44.2567 86.6173 44.7488C86.3884 45.2409 86.6018 45.8253 87.0938 46.0542C88.9689 46.9264 90.5709 46.7807 91.8012 46.124C91.9441 46.0477 92.0806 45.9653 92.2107 45.878C92.2118 44.9291 92.1956 43.9892 92.1644 43.061Z" fill="#0455FF"/><path fillRule="evenodd" clipRule="evenodd" d="M45.2234 3.36097C44.6969 3.21656 44.4446 3.21587 44.3735 3.22955C43.8406 3.33204 43.3254 2.98309 43.2229 2.45016C43.1205 1.91722 43.4694 1.4021 44.0023 1.29961C44.5418 1.19587 45.1648 1.307 45.7432 1.46565C46.3559 1.63369 47.0685 1.89956 47.851 2.23082C49.4172 2.89388 51.3654 3.86309 53.5319 4.97036C54.2377 5.33108 54.9681 5.70714 55.7185 6.09353C59.6012 8.09276 64.0209 10.3685 68.3567 12.2269C69.7486 12.8235 71.2776 12.8479 71.7083 12.8C72.2477 12.7401 72.7335 13.1287 72.7935 13.6681C72.8534 14.2075 72.4648 14.6934 71.9254 14.7533C71.2288 14.8307 69.3467 14.7895 67.5824 14.0333C63.1765 12.1448 58.6835 9.83107 54.8022 7.83239C54.0564 7.44832 53.3332 7.07589 52.6375 6.72035C50.4672 5.61115 48.5775 4.67255 47.0848 4.04062C46.3379 3.72439 45.7157 3.49598 45.2234 3.36097Z" fill="#C7FFFE"/><g style="mix-blend-mode:overlay"><path d="M62.761 61.2707L72.1485 61.3891C72.6517 61.3955 72.9886 61.973 72.8139 62.5296C71.9746 65.2039 69.7387 67.0298 67.2585 66.9985C64.7783 66.9672 62.6708 65.0865 62.0172 62.3933C61.8812 61.8328 62.2578 61.2643 62.761 61.2707Z" fill="#204AFF"/></g><g style="mix-blend-mode:overlay"><path d="M78.431 61.5219L86.7763 61.2524C87.2808 61.2354 87.6288 61.7954 87.4635 62.3583C86.6694 65.0631 85.1641 66.8634 82.6774 66.9473C80.1907 67.0313 78.4081 65.3297 77.7054 62.6754C77.5591 62.123 77.9265 61.5389 78.431 61.5219Z" fill="#204AFF"/></g><g style="mix-blend-mode:overlay"><path d="M70.6254 71.5947L79.2683 71.7211C79.7721 71.7096 80.1204 72.2741 79.9562 72.8359C79.1673 75.5355 77.7208 77.0963 75.2374 77.153C72.754 77.2098 70.6082 75.4072 69.9024 72.7418C69.7554 72.187 70.1215 71.6062 70.6254 71.5947Z" fill="#204AFF"/></g><defs><radialGradient id="paint0_radial_5753_188720" cx="0" cy="0" r="1" gradientUnits="userSpaceOnUse" gradientTransform="translate(72.6846 12.0505) rotate(119.366) scale(87.0846 116.812)"><stop stop-color="#26FF55"/><stop offset="0.569543" stop-color="#268AFF"/><stop offset="0.987801" stop-color="#FC55FF"/></radialGradient><radialGradient id="paint1_radial_5753_188720" cx="0" cy="0" r="1" gradientUnits="userSpaceOnUse" gradientTransform="translate(72.6846 12.0505) rotate(119.366) scale(87.0846 116.812)"><stop stop-color="#26FF55"/><stop offset="0.569543" stop-color="#268AFF"/><stop offset="0.987801" stop-color="#FC55FF"/></radialGradient></defs></svg>