<?xml version="1.0" encoding="UTF-8"?><svg width="46px" height="46px" viewBox="0 0 46 46" version="1.1" xmlns="http://www.w3.org/2000/svg" xmlns:xlink="http://www.w3.org/1999/xlink"><title>Profile_active</title><desc>Created with Sketch.</desc><g id="Profile_active" stroke="none" strokeWidth="1" fill="none" fillRule="evenodd"><g id="active" transform="translate(2.000000, 5.000000)"><path d="M5.28018,16.7418 C5.28018,7.8774 12.4662,0.69141 21.3305,0.69141 C30.1949,0.69141 37.3809,7.8774 37.3809,16.7418 L37.3809,17.2283 C40.2783,18.6431 42.2742,21.6184 42.2742,25.0599 C42.2742,29.8704 38.3744,33.7701 33.5639,33.7701 L8.9012,33.7701 C4.09063,33.7701 0.19092,29.8704 0.19092,25.0599 C0.19092,21.5413 2.27719,18.51 5.28018,17.1356 L5.28018,16.7418 Z" id="Path" fill="#9069CD"/><path d="M8.9161,24.6741 C6.61248,24.2202 4.875,22.1893 4.875,19.7525 C4.875,17.2738 6.67286,15.215 9.0357,14.8089 C9.9543,9.0803 14.9197,4.70374 20.9073,4.70374 C26.8949,4.70374 31.8603,9.0804 32.7788,14.8091 C35.1411,15.2156 36.9384,17.2742 36.9384,19.7525 C36.9384,22.1889 35.2015,24.2196 32.8984,24.6739 C32.4414,30.8973 27.2474,35.8046 20.9073,35.8046 C14.5672,35.8046 9.3732,30.8975 8.9161,24.6741 Z" id="Path" fill="#F3AD6D"/><path d="M16.8271,15.8604 C16.8271,15.0496 17.4844,14.3923 18.2952,14.3923 L18.2952,14.3923 C19.1059,14.3923 19.7632,15.0496 19.7632,15.8604 L19.7632,19.7751 C19.7632,20.5858 19.1059,21.2431 18.2952,21.2431 L18.2952,21.2431 C17.4844,21.2431 16.8271,20.5858 16.8271,19.7751 L16.8271,15.8604 Z" id="Path" fill="#BF8034"/><path d="M21.9165,15.8604 C21.9165,15.0496 22.5738,14.3923 23.3845,14.3923 L23.3845,14.3923 C24.1953,14.3923 24.8525,15.0496 24.8525,15.8604 L24.8525,19.7751 C24.8525,20.5858 24.1953,21.2431 23.3845,21.2431 L23.3845,21.2431 C22.5738,21.2431 21.9165,20.5858 21.9165,19.7751 L21.9165,15.8604 Z" id="Path" fill="#BF8034"/><path d="M16.827,23.4506 L25.0691,23.4506 C25.5795,23.4506 25.9933,23.8643 25.9933,24.3748 L25.9933,24.854 C25.9933,27.6404 23.7345,29.8992 20.9481,29.8992 C18.1617,29.8992 15.9028,27.6404 15.9028,24.854 L15.9028,24.3748 C15.9028,23.8643 16.3166,23.4506 16.827,23.4506 Z" id="Path" fill="#FFFFFF" fillRule="nonzero"/><polygon id="Path" fill="#9069CD" points="24.6782 4.39091 25.3676 5.2063 25.3676 7.965 21.7978 11.6647 16.7876 14.298 11.2141 15.2386 8.0205 15.2386 8.0205 13.5458 9.8366 9.8147 12.3416 6.5858 17.7898 3.88953 22.4866 3.88953"/><path d="M5.7876,15.7622 L9.9734,15.7622 C15.1622,15.7269 23.4208,14.9891 26.1114,5.4932 C26.249,4.9357 26.3814,4.29115 26.5085,3.55957" id="Path" stroke="#9069CD" strokeWidth="2.64891"/></g></g></svg>